PathFileType	4	(X/Y/Z)	/Users/itak/Documents/Research/Walk-IL/dataset/trc/00071_00006.trc
DataRate	CameraRate	NumFrames	NumMarkers	Units	OrigDataRate	OrigDataStartFrame	OrigNumFrames
100.000000	100.000000	4	53	mm	100.000000	273	729
Frame#	Time	RPSI			LPSI			L3			STRN			T10			C7			CLAV			RBAK			LBAK			LSHO			LUPA			LAEL			LAOL			LWTS			LWPS			LFRA			LIFD			LHPS			LHTS			RSHO			RUPA			RAEL			RAOL			RWTS			RWPS			RFRA			RIFD			RHTS			RHPS			RBHD			LFHD			RFHD			LBHD			LHIP			RHIP			RASI			LASI			LKNE			LTHI			LANK			LTIP			LTOE			LMT1			LMT5			LHEE			RKNE			RTHI			RANK			RTIP			RTOE			RMT1			RMT5			RHEE			
		X1	Y1	Z1	X2	Y2	Z2	X3	Y3	Z3	X4	Y4	Z4	X5	Y5	Z5	X6	Y6	Z6	X7	Y7	Z7	X8	Y8	Z8	X9	Y9	Z9	X10	Y10	Z10	X11	Y11	Z11	X12	Y12	Z12	X13	Y13	Z13	X14	Y14	Z14	X15	Y15	Z15	X16	Y16	Z16	X17	Y17	Z17	X18	Y18	Z18	X19	Y19	Z19	X20	Y20	Z20	X21	Y21	Z21	X22	Y22	Z22	X23	Y23	Z23	X24	Y24	Z24	X25	Y25	Z25	X26	Y26	Z26	X27	Y27	Z27	X28	Y28	Z28	X29	Y29	Z29	X30	Y30	Z30	X31	Y31	Z31	X32	Y32	Z32	X33	Y33	Z33	X34	Y34	Z34	X35	Y35	Z35	X36	Y36	Z36	X37	Y37	Z37	X38	Y38	Z38	X39	Y39	Z39	X40	Y40	Z40	X41	Y41	Z41	X42	Y42	Z42	X43	Y43	Z43	X44	Y44	Z44	X45	Y45	Z45	X46	Y46	Z46	X47	Y47	Z47	X48	Y48	Z48	X49	Y49	Z49	X50	Y50	Z50	X51	Y51	Z51	X52	Y52	Z52	X53	Y53	Z53	

274	2.73	-343.4364929199219	1003.28076171875	138.4757843017578	-506.4481506347656	1002.486083984375	84.16799163818359	-432.8873291015625	1068.778686523438	103.8242950439453	-315.918212890625	1248.177490234375	-142.7967987060547	-445.1497802734375	1200.121459960938	101.696891784668	-413.4979858398438	1462.796508789062	29.49344444274902	-327.0334167480469	1364.0830078125	-121.1230697631836	-382.7027282714844	1328.33349609375	129.9889373779297	-513.9091186523438	1429.842041015625	3.66857123374939	-526.0338134765625	1430.679077148438	-120.3138732910156	-611.0800170898438	1312.54296875	-138.5187072753906	-647.5108642578125	1105.647338867188	-173.8164215087891	-593.8370971679688	1077.571899414062	-83.91414642333984	-570.2018432617188	873.321044921875	-268.2545166015625	-645.2176513671875	859.0460205078125	-232.1271362304688	-654.853759765625	999.3911743164062	-206.9692687988281	-551.6041870117188	693.0610961914062	-296.0602722167969	-634.5302734375	783.6454467773438	-274.9368591308594	-570.1647338867188	796.3646240234375	-304.289306640625	-234.3725128173828	1422.385131835938	61.68884658813477	-187.8926696777344	1361.01513671875	111.0575408935547	-162.6576080322266	1117.4501953125	202.2616729736328	-231.7346649169922	1080.985595703125	144.6165924072266	-163.1810302734375	845.4905395507812	89.39112854003906	-138.3560638427734	839.2935791015625	172.7232208251953	-149.9910736083984	1032.8720703125	206.2821197509766	-204.6331024169922	664.0745239257812	108.3319854736328	-164.7144622802734	739.8929443359375	80.49032592773438	-133.2347717285156	744.1358642578125	151.9024810791016	-400.104736328125	1653.08642578125	-116.5345840454102	-196.1788940429688	1628.451171875	-51.70535659790039	-230.5819244384766	1645.214599609375	-171.6648406982422	-355.5033264160156	1626.234130859375	11.28299236297607	-561.359619140625	942.5595703125	-43.20040512084961	-248.7516784667969	927.4817504882812	101.503791809082	-224.7299652099609	947.735595703125	-22.32510185241699	-471.1177978515625	943.9920043945312	-130.051025390625	-548.6558227539062	467.701416015625	-111.90478515625	-569.2037963867188	619.6029663085938	-91.99222564697266	-702.9028930664062	187.8578643798828	272.1667175292969	-643.4757080078125	320.4872741699219	82.07175445556641	-654.4330444335938	37.95450210571289	169.5736083984375	-611.91650390625	71.6319580078125	202.0946502685547	-718.5929565429688	89.65579986572266	224.8646545410156	-638.4922485351562	239.9766540527344	311.8786010742188	-252.5459136962891	509.5821533203125	-119.9509506225586	-214.6280822753906	761.7317504882812	-17.50382614135742	-343.1717224121094	36.77770233154297	-143.7705535888672	-264.3074340820312	380.4294738769531	-131.9520263671875	-267.0791625976562	47.65679931640625	-346.0684204101562	-327.7446594238281	46.90975189208984	-315.3471984863281	-266.222412109375	48.79463195800781	-238.6363677978516	-414.8836669921875	39.31727600097656	-137.1639251708984	
275	2.74	-340.3521728515625	1004.03076171875	131.5469970703125	-502.9278869628906	1002.576293945312	74.8509521484375	-429.1939392089844	1069.49853515625	95.66383361816406	-309.6528625488281	1248.993530273438	-149.6691436767578	-441.3789367675781	1200.915649414062	93.40251922607422	-409.4803161621094	1463.661376953125	21.47201919555664	-321.2843627929688	1364.948852539062	-128.2694549560547	-379.4384460449219	1329.3203125	122.4218978881836	-509.6309204101562	1430.338745117188	-5.34207010269165	-520.5894775390625	1430.87841796875	-129.4332122802734	-605.2556762695312	1312.423828125	-147.9212036132812	-641.0728759765625	1105.280639648438	-182.6659240722656	-588.1531372070312	1077.768676757812	-92.08283233642578	-563.3790893554688	872.1439819335938	-274.7996215820312	-638.7457275390625	858.3678588867188	-239.2210845947266	-648.2915649414062	998.8899536132812	-215.1498718261719	-545.079345703125	691.4005126953125	-300.5407104492188	-627.9169921875	782.5178833007812	-281.1659240722656	-563.1807250976562	794.6951904296875	-310.0213928222656	-230.5506591796875	1423.521850585938	55.52278900146484	-184.4748382568359	1362.137329101562	105.3498458862305	-160.2586669921875	1118.456665039062	196.7296142578125	-228.4775390625	1081.35595703125	137.6893310546875	-160.165771484375	846.4591674804688	84.0169677734375	-136.1945190429688	840.2406005859375	167.6115264892578	-147.854736328125	1033.859375	200.9160308837891	-202.5714569091797	665.1396484375	102.7223052978516	-162.0037384033203	740.812744140625	75.23232269287109	-131.2336730957031	745.020263671875	146.9345550537109	-394.7468872070312	1654.072265625	-124.3882064819336	-191.5227203369141	1629.398803710938	-57.40729141235352	-224.6244506835938	1646.29541015625	-177.7151794433594	-351.4867858886719	1627.090454101562	3.855183839797974	-555.434326171875	942.7324829101562	-53.85821533203125	-245.1434631347656	928.2047729492188	96.14762878417969	-219.1280364990234	948.4716186523438	-27.24231719970703	-463.5550231933594	944.7283935546875	-139.0475006103516	-539.6646728515625	468.8492126464844	-133.2020111083984	-561.8250122070312	620.6328735351562	-110.2102584838867	-702.24755859375	197.6581878662109	253.1433410644531	-637.976806640625	324.4323120117188	61.14232635498047	-652.3475341796875	40.14228057861328	154.8106079101562	-610.1573486328125	77.74025726318359	188.0616455078125	-717.3031005859375	98.31418609619141	208.0354766845703	-638.4507446289062	250.1376495361328	293.2464904785156	-249.9460906982422	509.2812194824219	-123.6918106079102	-210.6963806152344	761.5582885742188	-22.01210594177246	-343.1461791992188	37.01172637939453	-144.1170654296875	-262.5289001464844	380.0713500976562	-135.0047912597656	-267.0550537109375	45.74806213378906	-347.134765625	-327.59716796875	45.93095397949219	-315.8242797851562	-266.254638671875	48.63317108154297	-239.2277526855469	-414.947509765625	39.43664932250977	-137.3890686035156	
276	2.75	-337.40966796875	1004.80224609375	124.7278060913086	-499.4997863769531	1002.705200195312	65.73548889160156	-425.5991516113281	1070.22412109375	87.60401916503906	-303.4991149902344	1249.803466796875	-156.2951812744141	-437.6927795410156	1201.721801757812	85.26019287109375	-405.5442199707031	1464.53271484375	13.6114559173584	-315.6219787597656	1365.793212890625	-135.1858520507812	-376.2754211425781	1330.328247070312	115.0337295532227	-505.4006652832031	1430.820190429688	-14.19930839538574	-515.2119750976562	1431.050659179688	-138.3939056396484	-599.496826171875	1312.258178710938	-157.1850128173828	-634.6525268554688	1104.85302734375	-191.3906860351562	-582.5338134765625	1077.934448242188	-100.1347427368164	-556.5779418945312	870.9380493164062	-281.1604309082031	-632.2993774414062	857.645751953125	-246.1589660644531	-641.7546997070312	998.3333129882812	-223.1994323730469	-538.6649169921875	689.79296875	-305.1003723144531	-621.3153686523438	781.4121704101562	-287.3196411132812	-556.262451171875	793.08837890625	-315.6700134277344	-226.8234558105469	1424.6376953125	49.56328964233398	-181.2034454345703	1363.224365234375	99.85376739501953	-157.9793395996094	1119.402221679688	191.3704681396484	-225.7888031005859	1081.960815429688	131.4040832519531	-156.9703826904297	847.44384765625	78.69430541992188	-133.96875	841.1397705078125	162.5699768066406	-145.7709655761719	1034.795288085938	195.6903686523438	-200.1018676757812	666.150634765625	96.85066223144531	-158.9548950195312	741.7844848632812	69.88901519775391	-129.0161285400391	745.8912963867188	141.924560546875	-389.5231018066406	1655.059814453125	-132.0563507080078	-186.9991149902344	1630.398803710938	-62.96670150756836	-218.8300170898438	1647.420532226562	-183.6031799316406	-347.5812683105469	1627.95361328125	-3.4103102684021	-549.4053344726562	942.948486328125	-64.39021301269531	-241.6541137695312	928.9813842773438	90.94473266601562	-213.60888671875	949.2387084960938	-31.97590827941895	-456.0020446777344	945.4859619140625	-147.8686218261719	-529.5958862304688	470.3102111816406	-154.3177337646484	-553.7019653320312	621.8726196289062	-128.2455596923828	-700.9244384765625	206.5410919189453	233.1112365722656	-631.6851806640625	328.3184814453125	39.93412017822266	-649.669921875	43.7365608215332	137.3041381835938	-607.8414916992188	84.20249176025391	171.6639099121094	-715.454833984375	106.842155456543	188.9213104248047	-637.7685546875	259.0269165039062	274.0911254882812	-247.4442443847656	508.989013671875	-127.1592025756836	-206.8610076904297	761.4358520507812	-26.33762550354004	-343.1259460449219	37.20291137695312	-144.3844299316406	-260.8245849609375	379.7315673828125	-137.8018951416016	-267.0770263671875	44.23448181152344	-347.96728515625	-327.4856262207031	45.14788055419922	-316.1794128417969	-266.266357421875	48.49658584594727	-239.7073822021484	-415.0186767578125	39.51361083984375	-137.5625152587891	
277	2.76	-334.5943908691406	1005.619384765625	118.0083084106445	-496.1320190429688	1002.89306640625	56.78890991210938	-422.1080627441406	1070.965576171875	79.62628936767578	-297.445556640625	1250.650634765625	-162.6849670410156	-434.0892028808594	1202.542846679688	77.25653839111328	-401.6904296875	1465.409790039062	5.907182216644287	-310.0496826171875	1366.648803710938	-141.8620300292969	-373.2102661132812	1331.348754882812	107.8028182983398	-501.2115173339844	1431.311279296875	-22.90579223632812	-509.8861694335938	1431.24462890625	-147.1954498291016	-593.7908325195312	1312.10595703125	-166.3282012939453	-628.2281494140625	1104.432739257812	-199.9861145019531	-576.9403076171875	1078.12939453125	-108.0861129760742	-549.7874755859375	869.7531127929688	-287.3181762695312	-625.8756103515625	856.93603515625	-252.9327850341797	-635.2261352539062	997.7804565429688	-231.1080780029297	-532.346435546875	688.28076171875	-309.7134704589844	-614.7291259765625	780.3800048828125	-293.3902587890625	-549.4014892578125	791.5902099609375	-321.216064453125	-223.1963653564453	1425.755737304688	43.81137466430664	-178.0823364257812	1364.299926757812	94.56991577148438	-155.8540191650391	1120.313232421875	186.1685333251953	-223.5932006835938	1082.805786132812	125.6271820068359	-153.6026153564453	848.455078125	73.43163299560547	-131.6858062744141	842.0249633789062	157.5963897705078	-143.7638244628906	1035.709716796875	190.5913391113281	-197.1935424804688	667.1076049804688	90.78115844726562	-155.5553436279297	742.8128662109375	64.49296569824219	-126.5645599365234	746.7810668945312	136.9028625488281	-384.4115905761719	1656.057861328125	-139.5512542724609	-182.5892791748047	1631.449462890625	-68.40057373046875	-213.1803436279297	1648.56884765625	-189.3469085693359	-343.7645874023438	1628.848999023438	-10.5195140838623	-543.2886352539062	943.2567138671875	-74.80625152587891	-238.2888488769531	929.8175659179688	85.88876342773438	-208.1653747558594	950.0580444335938	-36.53469467163086	-448.4795532226562	946.2850952148438	-156.4986419677734	-518.5065307617188	472.1290283203125	-175.1605072021484	-544.826904296875	623.3418579101562	-146.0921173095703	-698.8900756835938	214.3645477294922	212.1567840576172	-624.6866455078125	332.1641540527344	18.52910804748535	-646.4588012695312	48.50998687744141	117.2693634033203	-605.0143432617188	90.70690155029297	153.0102386474609	-713.019287109375	114.9610977172852	167.7256774902344	-636.4166870117188	266.5187683105469	254.4245147705078	-245.0349273681641	508.71142578125	-130.3532257080078	-203.1160430908203	761.374267578125	-30.4932689666748	-343.1030883789062	37.35867309570312	-144.5818328857422	-259.1832275390625	379.4187927246094	-140.3638763427734	-267.1532897949219	43.10466003417969	-348.588134765625	-327.4180603027344	44.54044342041016	-316.4336242675781	-266.2653198242188	48.38798141479492	-240.0829925537109	-415.0916442871094	39.56100082397461	-137.6908569335938	
